<svg xmlns="http://www.w3.org/2000/svg" x="0px" y="0px"
width="26" height="26"
viewBox="0 0 192 192"
style=" fill:#000000;"><g transform="translate(0.48,0.48) scale(0.995,0.995)"><g fill="none" fill-rule="nonzero" stroke="none" stroke-width="1" stroke-linecap="butt" stroke-linejoin="none" stroke-miterlimit="10" stroke-dasharray="" stroke-dashoffset="0" font-family="none" font-weight="none" font-size="none" text-anchor="none" style="mix-blend-mode: normal"><g fill="#337ab7" stroke="#17a2b8" stroke-linejoin="round"><path d="M144,56c0,34.288 -48,88 -48,88c0,0 -48,-53.712 -48,-88c0,-26.512 21.488,-48 48,-48c26.512,0 48,21.488 48,48zM78.85938,56c0,9.472 7.67662,17.14062 17.14062,17.14062c9.464,0 17.14062,-7.67662 17.14062,-17.14062c0,-9.472 -7.66862,-17.14062 -17.14062,-17.14062c-9.472,0 -17.14062,7.66862 -17.14062,17.14062zM57.5,120c3.88,5.848 7.77538,11.264 11.35938,16h-19.64062l-9.59375,24h112.75l-9.59375,-24h-19.64062c3.584,-4.736 7.47938,-10.152 11.35938,-16h19.09375l22.40625,56h-160l22.40625,-56z"></path></g><path d="M0,192v-192h192v192z" fill="none" stroke="none" stroke-linejoin="miter"></path><g fill="#17a2b8" stroke="none" stroke-linejoin="miter"><path d="M96,8c-26.512,0 -48,21.488 -48,48c0,34.288 48,88 48,88c0,0 48,-53.712 48,-88c0,-26.512 -21.488,-48 -48,-48zM96,38.85938c9.472,0 17.14062,7.66862 17.14062,17.14062c0,9.464 -7.67662,17.14062 -17.14062,17.14062c-9.464,0 -17.14062,-7.66862 -17.14062,-17.14062c0,-9.472 7.66862,-17.14062 17.14062,-17.14062zM38.40625,120l-22.40625,56h160l-22.40625,-56h-19.09375c-3.88,5.848 -7.77538,11.264 -11.35938,16h19.64062l9.59375,24h-112.75l9.59375,-24h19.64062c-3.584,-4.736 -7.47938,-10.152 -11.35938,-16z"></path></g><path d="" fill="none" stroke="none" stroke-linejoin="miter"></path><path d="" fill="none" stroke="none" stroke-linejoin="miter"></path></g></g></svg>