<svg xmlns="http://www.w3.org/2000/svg" x="0px" y="0px"
width="26" height="26"
viewBox="0 0 192 192"
style=" fill:#000000;"><g transform="translate(0.48,0.48) scale(0.995,0.995)"><g fill="none" fill-rule="nonzero" stroke="none" stroke-width="1" stroke-linecap="butt" stroke-linejoin="none" stroke-miterlimit="10" stroke-dasharray="" stroke-dashoffset="0" font-family="none" font-weight="none" font-size="none" text-anchor="none" style="mix-blend-mode: normal"><g fill="#17a2b8" stroke="#17a2b8" stroke-linejoin="round"><path d="M141.925,33.1875c2.05537,-4.60978 6.62777,-7.58135 11.675,-7.5875c7.06924,0 12.8,5.73076 12.8,12.8c-0.00615,5.04724 -2.97772,9.61963 -7.5875,11.675c12.10148,19.7235 9.6673,45.8452 -7.4125,62.925l-12.7125,12.7125c-7.1936,7.2 -12.7981,15.7438 -16.6125,25.075l-80.875,-80.875c9.3312,-3.8144 17.8814,-9.4189 25.075,-16.6125l12.7125,-12.7c9.9968,-9.9968 23.096,-15 36.2,-15c9.28801,0 18.55592,2.56525 26.7375,7.5875zM30.125,72.275l89.6,89.6c1.67194,1.60523 2.34544,3.98891 1.76076,6.23174c-0.58468,2.24283 -2.33619,3.99434 -4.57902,4.57902c-2.24283,0.58468 -4.62651,-0.08882 -6.23174,-1.76076l-34.7,-34.7c-2.16535,6.54579 -8.28036,10.96835 -15.175,10.975c-8.83656,0 -16,-7.16344 -16,-16c0.01382,-6.89336 4.44113,-13.00295 10.9875,-15.1625l-34.7125,-34.7125c-1.86631,-1.8164 -2.446,-4.58248 -1.46602,-6.99537c0.97998,-2.41289 3.32421,-3.99145 5.92852,-3.99213c1.72801,0.0001 3.38257,0.69889 4.5875,1.9375z"></path></g><path d="M0,192v-192h192v192z" fill="none" stroke="none" stroke-linejoin="miter"></path><g fill="#17a2b8" stroke="none" stroke-linejoin="miter"><path d="M115.1875,25.6c-13.104,0 -26.2032,5.0032 -36.2,15l-12.7125,12.7c-7.1936,7.1936 -15.7438,12.7981 -25.075,16.6125l80.875,80.875c3.8144,-9.3312 9.4189,-17.875 16.6125,-25.075l12.7125,-12.7125c17.0798,-17.0798 19.51398,-43.2015 7.4125,-62.925c4.60978,-2.05537 7.58135,-6.62776 7.5875,-11.675c0,-7.06924 -5.73076,-12.8 -12.8,-12.8c-5.04724,0.00615 -9.61964,2.97772 -11.675,7.5875c-8.18157,-5.02225 -17.44948,-7.5875 -26.7375,-7.5875zM25.5375,70.3375c-2.60431,0.00068 -4.94854,1.57923 -5.92852,3.99213c-0.97998,2.41289 -0.40029,5.17898 1.46602,6.99537l34.7125,34.7125c-6.54637,2.15955 -10.97368,8.26914 -10.9875,15.1625c0,8.83656 7.16344,16 16,16c6.89464,-0.00665 13.00966,-4.42921 15.175,-10.975l34.7,34.7c1.60523,1.67194 3.98891,2.34544 6.23174,1.76076c2.24283,-0.58468 3.99434,-2.33619 4.57902,-4.57902c0.58468,-2.24283 -0.08882,-4.62651 -1.76076,-6.23174l-89.6,-89.6c-1.20493,-1.23861 -2.85949,-1.9374 -4.5875,-1.9375z"></path></g><path d="" fill="none" stroke="none" stroke-linejoin="miter"></path></g></g></svg>