<svg xmlns="http://www.w3.org/2000/svg" x="0px" y="0px"
width="40" height="40"
viewBox="0 0 192 192"
style=" fill:#000000;"><g transform="translate(0.48,0.48) scale(0.995,0.995)"><g fill="none" fill-rule="nonzero" stroke="none" stroke-width="1" stroke-linecap="butt" stroke-linejoin="none" stroke-miterlimit="10" stroke-dasharray="" stroke-dashoffset="0" font-family="none" font-weight="none" font-size="none" text-anchor="none" style="mix-blend-mode: normal"><g fill="#dc3545" stroke="#dc3545" stroke-linejoin="round"><g id="surface1 1"><path d="M175.84615,99.69231c0,42.0577 -34.09615,76.15385 -76.15385,76.15385c-42.05769,0 -76.15385,-34.09615 -76.15385,-76.15385c0,-42.05769 34.09616,-76.15385 76.15385,-76.15385c42.0577,0 76.15385,34.09616 76.15385,76.15385zM140.30769,88.61538h-81.23077v22.15385h81.23077z"></path></g></g><path d="M0,192v-192h192v192z" fill="none" stroke="none" stroke-linejoin="miter"></path><g fill="#dc3545" stroke="none" stroke-linejoin="miter"><g id="surface1"><path d="M99.69231,23.53846c-42.05769,0 -76.15385,34.09616 -76.15385,76.15385c0,42.0577 34.09616,76.15385 76.15385,76.15385c42.0577,0 76.15385,-34.09615 76.15385,-76.15385c0,-42.05769 -34.09615,-76.15385 -76.15385,-76.15385zM140.30769,110.76923h-81.23077v-22.15385h81.23077z"></path></g></g><path d="" fill="none" stroke="none" stroke-linejoin="miter"></path><path d="" fill="none" stroke="none" stroke-linejoin="miter"></path></g></g></svg>