<!-- <svg xmlns="http://www.w3.org/2000/svg" x="0px" y="0px"
width="40" height="40"
viewBox="0 0 192 192"
style=" fill:#000000;"><g transform="translate(14.4,14.4) scale(0.85,0.85)"><g fill="none" fill-rule="nonzero" stroke="none" stroke-width="1" stroke-linecap="butt" stroke-linejoin="miter" stroke-miterlimit="10" stroke-dasharray="" stroke-dashoffset="0" font-family="none" font-weight="none" font-size="none" text-anchor="none" style="mix-blend-mode: normal"><path d="M0,192v-192h192v192z" fill="none" stroke="none"></path><g id="Layer_1" stroke="none"><g><g fill="#5cb85c"><g><g><g><g><g><g><path d="M2.9625,96c0,-51.375 41.6625,-93.0375 93.0375,-93.0375c51.375,0 93.0375,41.6625 93.0375,93.0375c0,51.375 -41.6625,93.0375 -93.0375,93.0375c-51.375,0 -93.0375,-41.6625 -93.0375,-93.0375z"></path></g></g></g></g></g></g></g><path d="M146.8125,80.325h-101.625c-1.5,0 -2.7,1.2 -2.7,2.7v25.95c0,1.5 1.2,2.7 2.7,2.7h101.5875c1.5,0 2.7,-1.2 2.7,-2.7v-25.95c0.0375,-1.5 -1.2,-2.7 -2.6625,-2.7z" fill="#ffffff"></path></g></g><path d="" fill="none" stroke="none"></path><path d="" fill="none" stroke="none"></path><path d="" fill="none" stroke="none"></path><path d="" fill="none" stroke="none"></path><path d="" fill="none" stroke="none"></path><path d="" fill="none" stroke="none"></path><path d="" fill="none" stroke="none"></path><path d="" fill="none" stroke="none"></path><path d="" fill="none" stroke="none"></path></g></g></svg>
 -->

 <svg xmlns="http://www.w3.org/2000/svg" x="0px" y="0px"
width="40" height="40"
viewBox="0 0 172 172"
style=" fill:#000000;"><g fill="none" fill-rule="nonzero" stroke="none" stroke-width="1" stroke-linecap="butt" stroke-linejoin="miter" stroke-miterlimit="10" stroke-dasharray="" stroke-dashoffset="0" font-family="none" font-weight="none" font-size="none" text-anchor="none" style="mix-blend-mode: normal"><path d="M0,172v-172h172v172z" fill="none"></path><g id="Layer_1"><path d="M86,157.66667c-39.517,0 -71.66667,-32.14967 -71.66667,-71.66667c0,-39.517 32.14967,-71.66667 71.66667,-71.66667c39.517,0 71.66667,32.14967 71.66667,71.66667c0,39.517 -32.14967,71.66667 -71.66667,71.66667z" fill="#17a2b8"></path><path d="M50.16667,75.25h71.66667v21.5h-71.66667z" fill="#ffffff"></path></g></g></svg>