<svg xmlns="http://www.w3.org/2000/svg" x="0px" y="0px"
width="26" height="26"
viewBox="0 0 192 192"
style=" fill:#000000;"><g transform="translate(0.48,0.48) scale(0.995,0.995)"><g fill="none" fill-rule="nonzero" stroke="none" stroke-width="1" stroke-linecap="butt" stroke-linejoin="none" stroke-miterlimit="10" stroke-dasharray="" stroke-dashoffset="0" font-family="none" font-weight="none" font-size="none" text-anchor="none" style="mix-blend-mode: normal"><g fill="#17a2b8" stroke="#17a2b8" stroke-linejoin="round"><g id="surface1 1"><path d="M28,36c0,-4 3.20312,-8 7.59375,-8h28.40625c4,0 8,3.59375 8,7.59375v32.40625l-17.20312,16.40625c0.40625,10.79687 42.40625,52.79687 52.79688,52.79687l16.40625,-17.20312l32.40625,0.40625c4,0 7.59375,3.59375 7.59375,7.59375v28.40625c0,4.39062 -3.59375,7.59375 -7.59375,7.59375h-14.8125c-45.1875,-0.40625 -113.1875,-60.79688 -113.59375,-113.59375v-14.40625"></path></g></g><path d="M0,192v-192h192v192z" fill="none" stroke="none" stroke-linejoin="miter"></path><g fill="#17a2b8" stroke="none" stroke-linejoin="miter"><g id="surface1"><path d="M28,36v14.40625c0.40625,52.79687 68.40625,113.1875 113.59375,113.59375h14.8125c4,0 7.59375,-3.20312 7.59375,-7.59375v-28.40625c0,-4 -3.59375,-7.59375 -7.59375,-7.59375l-32.40625,-0.40625l-16.40625,17.20312c-10.39063,0 -52.39063,-42 -52.79688,-52.79687l17.20312,-16.40625v-32.40625c0,-4 -4,-7.59375 -8,-7.59375h-28.40625c-4.39063,0 -7.59375,4 -7.59375,8"></path></g></g><path d="" fill="none" stroke="none" stroke-linejoin="miter"></path><path d="" fill="none" stroke="none" stroke-linejoin="miter"></path></g></g></svg>