<!-- <svg xmlns="http://www.w3.org/2000/svg" x="0px" y="0px"
width="40" height="40"
viewBox="0 0 192 192"
style=" fill:#000000;"><g transform=""><g fill="none" fill-rule="nonzero" stroke="none" stroke-width="1" stroke-linecap="butt" stroke-linejoin="miter" stroke-miterlimit="10" stroke-dasharray="" stroke-dashoffset="0" font-family="none" font-weight="none" font-size="none" text-anchor="none" style="mix-blend-mode: normal"><path d="M0,192v-192h192v192z" fill="none"></path><g id="Layer_1"><g id="surface1_34_"><path d="M176,96c0,44.18 -35.82,80 -80,80c-44.18,0 -80,-35.82 -80,-80c0,-44.18 35.82,-80 80,-80c44.18,0 80,35.82 80,80z" fill="#5cb85c"></path><path d="M84,56h24v80h-24z" fill="#ffffff"></path><path d="M56,84h80v24h-80z" fill="#ffffff"></path></g></g></g></g></svg> -->


<svg xmlns="http://www.w3.org/2000/svg" x="0px" y="0px"
width="40" height="40"
viewBox="0 0 172 172"
style=" fill:#000000;"><g transform="translate(0.516,0.516) scale(0.994,0.994)"><g fill="none" fill-rule="nonzero" stroke="none" stroke-width="1" stroke-linecap="butt" stroke-linejoin="none" stroke-miterlimit="10" stroke-dasharray="" stroke-dashoffset="0" font-family="none" font-weight="none" font-size="none" text-anchor="none" style="mix-blend-mode: normal"><g id="Layer_1 1" stroke="#17a2b8" stroke-linejoin="round"><g id="surface1_34_ 1"><path d="M157.66667,86c0,39.57792 -32.08875,71.66667 -71.66667,71.66667c-39.57792,0 -71.66667,-32.08875 -71.66667,-71.66667c0,-39.57792 32.08875,-71.66667 71.66667,-71.66667c39.57792,0 71.66667,32.08875 71.66667,71.66667z" fill="#17a2b8"></path><path d="M75.25,50.16667h21.5v71.66667h-21.5z" fill="#ffffff"></path><path d="M50.16667,75.25h71.66667v21.5h-71.66667z" fill="#ffffff"></path></g></g><path d="M0,172v-172h172v172z" fill="none" stroke="none" stroke-linejoin="miter"></path><g id="Layer_1" stroke="none" stroke-linejoin="miter"><g id="surface1_34_"><path d="M157.66667,86c0,39.57792 -32.08875,71.66667 -71.66667,71.66667c-39.57792,0 -71.66667,-32.08875 -71.66667,-71.66667c0,-39.57792 32.08875,-71.66667 71.66667,-71.66667c39.57792,0 71.66667,32.08875 71.66667,71.66667z" fill="#17a2b8"></path><path d="M75.25,50.16667h21.5v71.66667h-21.5z" fill="#ffffff"></path><path d="M50.16667,75.25h71.66667v21.5h-71.66667z" fill="#ffffff"></path></g></g><path d="" fill="none" stroke="none" stroke-linejoin="miter"></path><path d="" fill="none" stroke="none" stroke-linejoin="miter"></path></g></g></svg>